<?xml version="1.0" standalone="no"?>
<!DOCTYPE svg PUBLIC "-//W3C//DTD SVG 20010904//EN"
 "http://www.w3.org/TR/2001/REC-SVG-20010904/DTD/svg10.dtd">
<svg version="1.0" xmlns="http://www.w3.org/2000/svg"
 width="133.000000pt" height="133.000000pt" viewBox="0 0 133.000000 133.000000"
 preserveAspectRatio="xMidYMid meet">

<g transform="translate(0.000000,133.000000) scale(0.100000,-0.100000)"
fill="#000000" stroke="none">
<path d="M55 670 c-21 -28 -34 -54 -30 -58 4 -4 17 6 29 22 11 16 29 38 38 50
l17 21 16 -23 c33 -46 63 -77 70 -71 10 11 -68 109 -87 109 -9 0 -33 -23 -53
-50z"/>
<path d="M966 669 c-21 -28 -35 -54 -31 -57 4 -4 17 6 29 22 11 16 29 38 38
50 l18 21 20 -27 c45 -59 59 -73 65 -66 10 10 -67 108 -85 108 -9 0 -33 -23
-54 -51z"/>
<path d="M1244 669 l-38 -52 -18 22 c-9 13 -26 34 -36 48 -10 14 -24 24 -30
22 -15 -5 64 -109 83 -109 11 0 35 27 87 97 5 6 5 14 -1 17 -5 3 -26 -17 -47
-45z"/>
<path d="M207 698 c55 -74 77 -98 88 -98 16 0 90 98 81 107 -3 3 -14 -5 -25
-18 -10 -13 -27 -35 -38 -48 l-20 -24 -34 46 c-19 25 -40 46 -48 47 -9 0 -10
-4 -4 -12z"/>
<path d="M423 660 c0 -30 2 -43 4 -27 2 15 2 39 0 55 -2 15 -4 2 -4 -28z"/>
<path d="M482 698 c-7 -7 -12 -24 -12 -38 0 -42 17 -50 102 -50 74 0 79 1 90
25 8 19 8 31 0 50 -11 24 -16 25 -90 25 -47 0 -83 -5 -90 -12z m152 -4 c19 -7
21 -45 4 -62 -15 -15 -112 -16 -139 -2 -21 12 -25 40 -7 58 12 12 114 17 142
6z"/>
<path d="M722 698 c-7 -7 -11 -30 -10 -52 1 -41 1 -41 5 -6 7 51 18 60 82 60
66 0 81 -11 81 -57 0 -18 5 -33 10 -33 13 0 13 56 0 81 -9 16 -22 19 -83 19
-44 0 -78 -5 -85 -12z"/>
<path d="M97 634 c-8 -8 1 -24 14 -24 5 0 9 7 9 15 0 15 -12 20 -23 9z"/>
<path d="M1010 630 c0 -5 5 -10 10 -10 6 0 10 5 10 10 0 6 -4 10 -10 10 -5 0
-10 -4 -10 -10z"/>
</g>
</svg>
