<?xml version="1.0" standalone="no"?>
<!DOCTYPE svg PUBLIC "-//W3C//DTD SVG 20010904//EN"
 "http://www.w3.org/TR/2001/REC-SVG-20010904/DTD/svg10.dtd">
<svg version="1.0" xmlns="http://www.w3.org/2000/svg"
 width="558.000000pt" height="90.000000pt" viewBox="0 0 558.000000 90.000000"
 preserveAspectRatio="xMidYMid meet">

<g transform="translate(0.000000,90.000000) scale(0.100000,-0.100000)"
fill="#000000" stroke="none">
<path d="M351 698 c-27 -14 -331 -413 -331 -435 0 -18 36 -53 55 -53 22 0 35
16 184 212 73 97 139 179 146 182 24 9 56 -25 190 -203 73 -98 141 -181 151
-185 23 -9 64 20 64 46 0 21 -255 371 -304 417 -30 28 -116 38 -155 19z"/>
<path d="M4238 694 c-21 -11 -277 -339 -322 -412 -20 -32 25 -79 62 -64 11 4
82 88 157 187 75 99 143 185 152 192 11 8 21 9 34 2 10 -5 81 -92 158 -193 77
-101 148 -186 157 -190 23 -9 64 20 64 46 0 29 -282 404 -323 428 -38 23 -101
25 -139 4z"/>
<path d="M838 679 c-39 -22 -21 -58 127 -255 80 -106 157 -201 172 -211 36
-24 110 -24 146 0 45 29 317 399 317 431 0 32 -41 56 -68 40 -9 -6 -79 -93
-157 -195 -115 -150 -145 -184 -165 -184 -20 0 -51 35 -170 190 -146 190 -164
207 -202 184z"/>
<path d="M1736 674 c-14 -13 -16 -48 -16 -224 l0 -210 25 -16 c23 -15 27 -15
50 0 l25 16 0 210 c0 222 -4 240 -50 240 -10 0 -26 -7 -34 -16z"/>
<path d="M2070 674 c-50 -22 -79 -52 -106 -109 -63 -134 0 -310 124 -345 49
-13 535 -13 585 1 48 13 102 60 130 113 16 31 21 59 22 116 0 90 -28 155 -88
204 l-39 31 -296 2 c-249 2 -303 0 -332 -13z m621 -121 c60 -59 50 -176 -18
-220 -24 -16 -56 -18 -288 -18 -284 0 -293 2 -331 60 -21 33 -22 112 -1 152
32 61 43 63 339 60 l268 -2 31 -32z"/>
<path d="M3080 674 c-50 -22 -79 -52 -106 -109 -22 -45 -24 -64 -24 -193 l0
-142 26 -10 c29 -11 58 0 68 26 3 8 6 70 6 136 0 204 6 208 327 208 314 0 314
0 321 -218 4 -127 5 -134 28 -149 22 -14 26 -14 50 2 l26 17 -4 141 c-3 131
-6 146 -31 194 -15 28 -43 64 -64 80 l-36 28 -276 2 c-230 2 -282 0 -311 -13z"/>
<path d="M4722 678 c-29 -29 -11 -62 133 -254 80 -106 157 -201 172 -211 36
-24 110 -24 146 0 15 10 93 105 173 212 119 158 145 199 142 222 -4 35 -47 54
-73 33 -9 -8 -77 -94 -152 -192 -74 -99 -142 -182 -150 -185 -9 -4 -23 -2 -32
4 -9 5 -79 92 -156 194 -109 143 -146 185 -165 187 -14 2 -31 -3 -38 -10z"/>
<path d="M372 377 c-45 -47 -17 -107 49 -107 45 0 59 15 59 61 0 64 -65 92
-108 46z"/>
<path d="M4262 377 c-45 -47 -17 -107 49 -107 45 0 59 15 59 61 0 64 -65 92
-108 46z"/>
</g>
</svg>
